<?xml version="1.0" encoding="UTF-8"?>
<svg width="224px" height="153px" version="1.1" viewBox="0 0 700 700" xmlns="http://www.w3.org/2000/svg" xmlns:xlink="http://www.w3.org/1999/xlink">
 <defs>
  <symbol id="w" overflow="visible">
   <path d="m18.766-1.125c-0.96875 0.5-1.9805 0.875-3.0312 1.125-1.043 0.25781-2.1367 0.39062-3.2812 0.39062-3.3984 0-6.0898-0.94531-8.0781-2.8438-1.9922-1.9062-2.9844-4.4844-2.9844-7.7344 0-3.2578 0.99219-5.8359 2.9844-7.7344 1.9883-1.9062 4.6797-2.8594 8.0781-2.8594 1.1445 0 2.2383 0.13281 3.2812 0.39062 1.0508 0.25 2.0625 0.625 3.0312 1.125v4.2188c-0.98047-0.65625-1.9453-1.1406-2.8906-1.4531-0.94922-0.3125-1.9492-0.46875-3-0.46875-1.875 0-3.3516 0.60547-4.4219 1.8125-1.0742 1.1992-1.6094 2.8555-1.6094 4.9688 0 2.1055 0.53516 3.7617 1.6094 4.9688 1.0703 1.1992 2.5469 1.7969 4.4219 1.7969 1.0508 0 2.0508-0.14844 3-0.45312 0.94531-0.3125 1.9102-0.80078 2.8906-1.4688z"/>
  </symbol>
  <symbol id="c" overflow="visible">
   <path d="m13.734-11.141c-0.4375-0.19531-0.87109-0.34375-1.2969-0.4375-0.41797-0.10156-0.83984-0.15625-1.2656-0.15625-1.2617 0-2.2305 0.40625-2.9062 1.2188-0.67969 0.80469-1.0156 1.9531-1.0156 3.4531v7.0625h-4.8906v-15.312h4.8906v2.5156c0.625-1 1.3438-1.7266 2.1562-2.1875 0.82031-0.46875 1.8008-0.70312 2.9375-0.70312 0.16406 0 0.34375 0.011719 0.53125 0.03125 0.19531 0.011719 0.47656 0.039062 0.84375 0.078125z"/>
  </symbol>
  <symbol id="a" overflow="visible">
   <path d="m17.641-7.7031v1.4062h-11.453c0.125 1.1484 0.53906 2.0078 1.25 2.5781 0.70703 0.57422 1.7031 0.85938 2.9844 0.85938 1.0312 0 2.082-0.14844 3.1562-0.45312 1.082-0.3125 2.1914-0.77344 3.3281-1.3906v3.7656c-1.1562 0.4375-2.3125 0.76562-3.4688 0.98438-1.1562 0.22656-2.3125 0.34375-3.4688 0.34375-2.7734 0-4.9297-0.70312-6.4688-2.1094-1.5312-1.4062-2.2969-3.3789-2.2969-5.9219 0-2.5 0.75391-4.4609 2.2656-5.8906 1.5078-1.4375 3.582-2.1562 6.2188-2.1562 2.4062 0 4.332 0.73047 5.7812 2.1875 1.4453 1.4492 2.1719 3.3828 2.1719 5.7969zm-5.0312-1.625c0-0.92578-0.27344-1.6719-0.8125-2.2344-0.54297-0.57031-1.25-0.85938-2.125-0.85938-0.94922 0-1.7188 0.26562-2.3125 0.79688s-0.96484 1.2969-1.1094 2.2969z"/>
  </symbol>
  <symbol id="f" overflow="visible">
   <path d="m9.2188-6.8906c-1.0234 0-1.793 0.17188-2.3125 0.51562-0.51172 0.34375-0.76562 0.85547-0.76562 1.5312 0 0.625 0.20703 1.1172 0.625 1.4688 0.41406 0.34375 0.98828 0.51562 1.7188 0.51562 0.92578 0 1.7031-0.32812 2.3281-0.98438 0.63281-0.66406 0.95312-1.4922 0.95312-2.4844v-0.5625zm7.4688-1.8438v8.7344h-4.9219v-2.2656c-0.65625 0.92969-1.3984 1.6055-2.2188 2.0312-0.82422 0.41406-1.8242 0.625-3 0.625-1.5859 0-2.8711-0.45703-3.8594-1.375-0.99219-0.92578-1.4844-2.1289-1.4844-3.6094 0-1.7891 0.61328-3.1016 1.8438-3.9375 1.2383-0.84375 3.1797-1.2656 5.8281-1.2656h2.8906v-0.39062c0-0.76953-0.30859-1.332-0.92188-1.6875-0.61719-0.36328-1.5703-0.54688-2.8594-0.54688-1.0547 0-2.0312 0.10547-2.9375 0.3125-0.89844 0.21094-1.7305 0.52344-2.5 0.9375v-3.7344c1.0391-0.25 2.0859-0.44141 3.1406-0.57812 1.0625-0.13281 2.125-0.20312 3.1875-0.20312 2.7578 0 4.75 0.54688 5.9688 1.6406 1.2266 1.0859 1.8438 2.8555 1.8438 5.3125z"/>
  </symbol>
  <symbol id="b" overflow="visible">
   <path d="m7.7031-19.656v4.3438h5.0469v3.5h-5.0469v6.5c0 0.71094 0.14062 1.1875 0.42188 1.4375s0.83594 0.375 1.6719 0.375h2.5156v3.5h-4.1875c-1.9375 0-3.3125-0.39844-4.125-1.2031-0.80469-0.8125-1.2031-2.1797-1.2031-4.1094v-6.5h-2.4219v-3.5h2.4219v-4.3438z"/>
  </symbol>
  <symbol id="m" overflow="visible">
   <path d="m12.766-13.078v-8.2031h4.9219v21.281h-4.9219v-2.2188c-0.66797 0.90625-1.4062 1.5703-2.2188 1.9844s-1.7578 0.625-2.8281 0.625c-1.8867 0-3.4336-0.75-4.6406-2.25-1.2109-1.5-1.8125-3.4258-1.8125-5.7812 0-2.3633 0.60156-4.2969 1.8125-5.7969 1.207-1.5 2.7539-2.25 4.6406-2.25 1.0625 0 2 0.21484 2.8125 0.64062 0.82031 0.42969 1.5664 1.0859 2.2344 1.9688zm-3.2188 9.9219c1.0391 0 1.8359-0.37891 2.3906-1.1406 0.55078-0.76953 0.82812-1.8828 0.82812-3.3438 0-1.457-0.27734-2.5664-0.82812-3.3281-0.55469-0.76953-1.3516-1.1562-2.3906-1.1562-1.043 0-1.8398 0.38672-2.3906 1.1562-0.55469 0.76172-0.82812 1.8711-0.82812 3.3281 0 1.4609 0.27344 2.5742 0.82812 3.3438 0.55078 0.76172 1.3477 1.1406 2.3906 1.1406z"/>
  </symbol>
  <symbol id="l" overflow="visible">
   <path d="m10.5-3.1562c1.0508 0 1.8516-0.37891 2.4062-1.1406 0.55078-0.76953 0.82812-1.8828 0.82812-3.3438 0-1.457-0.27734-2.5664-0.82812-3.3281-0.55469-0.76953-1.3555-1.1562-2.4062-1.1562-1.0547 0-1.8594 0.38672-2.4219 1.1562-0.55469 0.77344-0.82812 1.8828-0.82812 3.3281 0 1.4492 0.27344 2.5586 0.82812 3.3281 0.5625 0.77344 1.3672 1.1562 2.4219 1.1562zm-3.25-9.9219c0.67578-0.88281 1.4219-1.5391 2.2344-1.9688 0.82031-0.42578 1.7656-0.64062 2.8281-0.64062 1.8945 0 3.4453 0.75 4.6562 2.25 1.207 1.5 1.8125 3.4336 1.8125 5.7969 0 2.3555-0.60547 4.2812-1.8125 5.7812-1.2109 1.5-2.7617 2.25-4.6562 2.25-1.0625 0-2.0078-0.21094-2.8281-0.625-0.8125-0.42578-1.5586-1.0859-2.2344-1.9844v2.2188h-4.8906v-21.281h4.8906z"/>
  </symbol>
  <symbol id="k" overflow="visible">
   <path d="m0.34375-15.312h4.8906l4.125 10.391 3.5-10.391h4.8906l-6.4375 16.766c-0.64844 1.6953-1.4023 2.8828-2.2656 3.5625-0.86719 0.6875-2 1.0312-3.4062 1.0312h-2.8438v-3.2188h1.5312c0.83203 0 1.4375-0.13672 1.8125-0.40625 0.38281-0.26172 0.67969-0.73047 0.89062-1.4062l0.14062-0.42188z"/>
  </symbol>
  <symbol id="j" overflow="visible">
   <path d="m16.781-19.766v4.3125c-1.125-0.5-2.2266-0.875-3.2969-1.125-1.0625-0.25781-2.0703-0.39062-3.0156-0.39062-1.25 0-2.1797 0.17969-2.7812 0.53125-0.60547 0.34375-0.90625 0.88281-0.90625 1.6094 0 0.54297 0.20312 0.96875 0.60938 1.2812 0.40625 0.30469 1.1406 0.5625 2.2031 0.78125l2.25 0.45312c2.2695 0.44922 3.8789 1.1406 4.8281 2.0781 0.95703 0.92969 1.4375 2.2461 1.4375 3.9531 0 2.25-0.66797 3.9297-2 5.0312-1.3359 1.0938-3.3711 1.6406-6.1094 1.6406-1.3047 0-2.6055-0.125-3.9062-0.375-1.3047-0.23828-2.6055-0.59766-3.9062-1.0781v-4.4531c1.3008 0.69922 2.5625 1.2266 3.7812 1.5781 1.2188 0.34375 2.3906 0.51562 3.5156 0.51562 1.1562 0 2.0352-0.1875 2.6406-0.5625 0.61328-0.38281 0.92188-0.9375 0.92188-1.6562 0-0.63281-0.21094-1.125-0.625-1.4688-0.41797-0.34375-1.2461-0.65625-2.4844-0.9375l-2.0312-0.4375c-2.043-0.4375-3.5391-1.1328-4.4844-2.0938-0.9375-0.95703-1.4062-2.25-1.4062-3.875 0-2.0312 0.65625-3.5938 1.9688-4.6875s3.1953-1.6406 5.6562-1.6406c1.125 0 2.2734 0.085938 3.4531 0.25 1.1875 0.16797 2.4141 0.42188 3.6875 0.76562z"/>
  </symbol>
  <symbol id="i" overflow="visible">
   <path d="m12.422-21.281v3.2188h-2.7031c-0.6875 0-1.1719 0.125-1.4531 0.375-0.27344 0.25-0.40625 0.6875-0.40625 1.3125v1.0625h4.1875v3.5h-4.1875v11.812h-4.8906v-11.812h-2.4375v-3.5h2.4375v-1.0625c0-1.6641 0.46094-2.8984 1.3906-3.7031 0.92578-0.80078 2.3672-1.2031 4.3281-1.2031z"/>
  </symbol>
  <symbol id="e" overflow="visible">
   <path d="m2.1875-5.9688v-9.3438h4.9219v1.5312c0 0.83594-0.007813 1.875-0.015625 3.125-0.011719 1.25-0.015625 2.0859-0.015625 2.5 0 1.2422 0.03125 2.1328 0.09375 2.6719 0.070313 0.54297 0.17969 0.93359 0.32812 1.1719 0.20703 0.32422 0.47266 0.57422 0.79688 0.75 0.32031 0.16797 0.69141 0.25 1.1094 0.25 1.0195 0 1.8203-0.39062 2.4062-1.1719 0.58203-0.78125 0.875-1.8672 0.875-3.2656v-7.5625h4.8906v15.312h-4.8906v-2.2188c-0.74219 0.89844-1.5234 1.5586-2.3438 1.9844-0.82422 0.41406-1.7344 0.625-2.7344 0.625-1.7617 0-3.1055-0.53906-4.0312-1.625-0.92969-1.082-1.3906-2.6602-1.3906-4.7344z"/>
  </symbol>
  <symbol id="h" overflow="visible">
   <path d="m2.3594-21.281h4.8906v21.281h-4.8906z"/>
  </symbol>
  <symbol id="v" overflow="visible">
   <path d="m2.5781-20.406h6.6875l4.6562 10.922 4.6719-10.922h6.6875v20.406h-4.9844v-14.938l-4.7031 11.016h-3.3281l-4.7031-11.016v14.938h-4.9844z"/>
  </symbol>
  <symbol id="u" overflow="visible">
   <path d="m14.312-14.828v3.7188c-1.043-0.4375-2.0547-0.76562-3.0312-0.98438-0.98047-0.21875-1.9023-0.32812-2.7656-0.32812-0.92969 0-1.6211 0.11719-2.0781 0.34375-0.44922 0.23047-0.67188 0.58984-0.67188 1.0781 0 0.38672 0.17188 0.68359 0.51562 0.89062 0.34375 0.21094 0.95703 0.36719 1.8438 0.46875l0.85938 0.125c2.5078 0.32422 4.1953 0.85156 5.0625 1.5781 0.86328 0.73047 1.2969 1.8711 1.2969 3.4219 0 1.6367-0.60547 2.8672-1.8125 3.6875-1.1992 0.8125-2.9922 1.2188-5.375 1.2188-1.0234 0-2.0742-0.078125-3.1562-0.23438-1.0742-0.15625-2.1797-0.39453-3.3125-0.71875v-3.7188c0.96875 0.48047 1.9609 0.83984 2.9844 1.0781 1.0312 0.23047 2.0781 0.34375 3.1406 0.34375 0.95703 0 1.6758-0.12891 2.1562-0.39062 0.47656-0.26953 0.71875-0.66406 0.71875-1.1875 0-0.4375-0.16797-0.75781-0.5-0.96875-0.33594-0.21875-0.99609-0.38281-1.9844-0.5l-0.85938-0.10938c-2.1797-0.26953-3.7031-0.77344-4.5781-1.5156-0.875-0.73828-1.3125-1.8594-1.3125-3.3594 0-1.625 0.55078-2.8281 1.6562-3.6094 1.1133-0.78906 2.8203-1.1875 5.125-1.1875 0.89453 0 1.8359 0.074219 2.8281 0.21875 1 0.13672 2.082 0.35156 3.25 0.64062z"/>
  </symbol>
  <symbol id="t" overflow="visible">
   <path d="m2.3594-15.312h4.8906v15.312h-4.8906zm0-5.9688h4.8906v4h-4.8906z"/>
  </symbol>
  <symbol id="g" overflow="visible">
   <path d="m16.547-12.766c0.61328-0.94531 1.3477-1.6719 2.2031-2.1719 0.85156-0.5 1.7891-0.75 2.8125-0.75 1.7578 0 3.0977 0.54688 4.0156 1.6406 0.92578 1.0859 1.3906 2.6562 1.3906 4.7188v9.3281h-4.9219v-7.9844-0.35938c0.007813-0.13281 0.015625-0.32031 0.015625-0.5625 0-1.082-0.16406-1.8633-0.48438-2.3438-0.3125-0.48828-0.82422-0.73438-1.5312-0.73438-0.92969 0-1.6484 0.38672-2.1562 1.1562-0.51172 0.76172-0.77344 1.8672-0.78125 3.3125v7.5156h-4.9219v-7.9844c0-1.6953-0.14844-2.7852-0.4375-3.2656-0.29297-0.48828-0.8125-0.73438-1.5625-0.73438-0.9375 0-1.6641 0.38672-2.1719 1.1562-0.51172 0.76172-0.76562 1.8594-0.76562 3.2969v7.5312h-4.9219v-15.312h4.9219v2.2344c0.60156-0.86328 1.2891-1.5156 2.0625-1.9531 0.78125-0.4375 1.6406-0.65625 2.5781-0.65625 1.0625 0 2 0.25781 2.8125 0.76562 0.8125 0.51172 1.4258 1.2305 1.8438 2.1562z"/>
  </symbol>
  <symbol id="d" overflow="visible">
   <path d="m9.6406-12.188c-1.0859 0-1.9141 0.39062-2.4844 1.1719-0.57422 0.78125-0.85938 1.9062-0.85938 3.375s0.28516 2.5938 0.85938 3.375c0.57031 0.77344 1.3984 1.1562 2.4844 1.1562 1.0625 0 1.875-0.38281 2.4375-1.1562 0.57031-0.78125 0.85938-1.9062 0.85938-3.375s-0.28906-2.5938-0.85938-3.375c-0.5625-0.78125-1.375-1.1719-2.4375-1.1719zm0-3.5c2.6328 0 4.6914 0.71484 6.1719 2.1406 1.4766 1.418 2.2188 3.3867 2.2188 5.9062 0 2.5117-0.74219 4.4805-2.2188 5.9062-1.4805 1.418-3.5391 2.125-6.1719 2.125-2.6484 0-4.7148-0.70703-6.2031-2.125-1.4922-1.4258-2.2344-3.3945-2.2344-5.9062 0-2.5195 0.74219-4.4883 2.2344-5.9062 1.4883-1.4258 3.5547-2.1406 6.2031-2.1406z"/>
  </symbol>
  <symbol id="s" overflow="visible">
   <path d="m17.75-9.3281v9.3281h-4.9219v-7.1094c0-1.3438-0.03125-2.2656-0.09375-2.7656s-0.16797-0.86719-0.3125-1.1094c-0.1875-0.3125-0.44922-0.55469-0.78125-0.73438-0.32422-0.17578-0.69531-0.26562-1.1094-0.26562-1.0234 0-1.8242 0.39844-2.4062 1.1875-0.58594 0.78125-0.875 1.8711-0.875 3.2656v7.5312h-4.8906v-21.281h4.8906v8.2031c0.73828-0.88281 1.5195-1.5391 2.3438-1.9688 0.83203-0.42578 1.75-0.64062 2.75-0.64062 1.7695 0 3.1133 0.54688 4.0312 1.6406 0.91406 1.0859 1.375 2.6562 1.375 4.7188z"/>
  </symbol>
  <symbol id="r" overflow="visible">
   <path d="m2.5781-20.406h5.875l7.4219 14v-14h4.9844v20.406h-5.875l-7.4219-14v14h-4.9844z"/>
  </symbol>
  <symbol id="q" overflow="visible">
   <path d="m17.75-9.3281v9.3281h-4.9219v-7.1406c0-1.3203-0.03125-2.2344-0.09375-2.7344s-0.16797-0.86719-0.3125-1.1094c-0.1875-0.3125-0.44922-0.55469-0.78125-0.73438-0.32422-0.17578-0.69531-0.26562-1.1094-0.26562-1.0234 0-1.8242 0.39844-2.4062 1.1875-0.58594 0.78125-0.875 1.8711-0.875 3.2656v7.5312h-4.8906v-15.312h4.8906v2.2344c0.73828-0.88281 1.5195-1.5391 2.3438-1.9688 0.83203-0.42578 1.75-0.64062 2.75-0.64062 1.7695 0 3.1133 0.54688 4.0312 1.6406 0.91406 1.0859 1.375 2.6562 1.375 4.7188z"/>
  </symbol>
  <symbol id="p" overflow="visible">
   <path d="m2.5781-20.406h8.7344c2.5938 0 4.582 0.57812 5.9688 1.7344 1.3945 1.1484 2.0938 2.7891 2.0938 4.9219 0 2.1367-0.69922 3.7812-2.0938 4.9375-1.3867 1.1562-3.375 1.7344-5.9688 1.7344h-3.4844v7.0781h-5.25zm5.25 3.8125v5.7031h2.9219c1.0195 0 1.8047-0.25 2.3594-0.75 0.5625-0.5 0.84375-1.2031 0.84375-2.1094 0-0.91406-0.28125-1.6172-0.84375-2.1094-0.55469-0.48828-1.3398-0.73438-2.3594-0.73438z"/>
  </symbol>
  <symbol id="o" overflow="visible">
   <path d="m2.3594-15.312h4.8906v15.031c0 2.0508-0.49609 3.6172-1.4844 4.7031-0.98047 1.082-2.4062 1.625-4.2812 1.625h-2.4219v-3.2188h0.85938c0.92578 0 1.5625-0.21094 1.9062-0.625 0.35156-0.41797 0.53125-1.2461 0.53125-2.4844zm0-5.9688h4.8906v4h-4.8906z"/>
  </symbol>
  <symbol id="n" overflow="visible">
   <path d="m14.719-14.828v3.9844c-0.65625-0.45703-1.3242-0.79688-2-1.0156-0.66797-0.21875-1.3594-0.32812-2.0781-0.32812-1.3672 0-2.4336 0.40234-3.2031 1.2031-0.76172 0.79297-1.1406 1.9062-1.1406 3.3438 0 1.4297 0.37891 2.543 1.1406 3.3438 0.76953 0.79297 1.8359 1.1875 3.2031 1.1875 0.75781 0 1.4844-0.10938 2.1719-0.32812 0.6875-0.22656 1.3203-0.56641 1.9062-1.0156v4c-0.76172 0.28125-1.5391 0.48828-2.3281 0.625-0.78125 0.14453-1.5742 0.21875-2.375 0.21875-2.7617 0-4.9219-0.70703-6.4844-2.125-1.5547-1.4141-2.3281-3.3828-2.3281-5.9062 0-2.5312 0.77344-4.5039 2.3281-5.9219 1.5625-1.4141 3.7227-2.125 6.4844-2.125 0.80078 0 1.5938 0.074219 2.375 0.21875 0.78125 0.13672 1.5547 0.35156 2.3281 0.64062z"/>
  </symbol>
 </defs>
 <g>
  <path d="m149.54 399.31c2.8008 5.0391 6.1602 10.547 10.078 16.52l25.762 34.723 26.602 23.801 14.562 9.2383c24.453 14.375 51.238 23.148 80.359 26.32-2.9883-4.1055-6.2539-9.2422-9.8008-15.398l-13.441-24.359c-5.2266-9.707-8.1172-15.027-8.6797-15.961-4.1055-6.5312-8.2148-12.227-12.32-17.078-5.0391-5.7891-11.293-10.734-18.758-14.844l-5.3203-2.8008-21.277-5.8789c-28.004-7.4688-50.594-12.227-67.766-14.281zm38.641-160.72c-1.6797 3.3594-3.5469 6.625-5.6016 9.8008-3.3594 5.6016-8.1211 11.762-14.277 18.48-3.3594 3.5469-7.8438 7.9336-13.441 13.16l-20.719 18.48c-7.6523 7.0938-13.254 12.602-16.801 16.52 0.37109 1.8672 0.83984 3.9219 1.3984 6.1602 2.8008 14.562 8.3086 31.27 16.52 50.121 2.4297 5.0391 4.5742 9.4258 6.4414 13.156 2.0547-0.37109 4.0117-0.37109 5.8789 0 18.668 1.6836 43.215 6.7227 73.641 15.121l22.684 7.5625 6.4375 3.3594c1.6797-2.6133 3.6406-5.043 5.8789-7.2812 1.8672-1.8633 4.293-4.1992 7.2812-7 1.1172-0.74609 2.2383-1.4922 3.3594-2.2383-3.1719-2.8008-5.6016-6.8125-7.2773-12.039l-17.078-56.84c-1.3086-3.5469-2.4297-7.4688-3.3594-11.762l-3.3594-12.32c-3.3594-12.133-5.3203-20.812-5.8789-26.039l0.27734-15.398c0.375-1.4922 0.83984-2.9844 1.3984-4.4805-10.27-2.8008-24.734-8.3086-43.402-16.523zm-18.203-118.72c-0.375-2.0547-0.5625-3.7305-0.5625-5.0391-10.824 11.945-20.438 26.32-28.84 43.121-8.7734 16.984-15.492 35.094-20.16 54.316-8.7734 32.297-10.078 64.773-3.918 97.441 2.8008-4.668 6.9062-10.082 12.316-16.242l19.039-20.719c11.945-13.254 19.973-23.613 24.082-31.082 4.1055-6.3477 6.8125-13.625 8.1172-21.84 0.5625-3.918 0.84375-6.0664 0.84375-6.4375l-1.1211-21.84c-1.3086-17.176-2.332-28.562-3.0781-34.16-1.4922-13.812-3.7305-26.32-6.7188-37.52zm329.28 287.28c-7.6523 1.4922-14.371 3.3594-20.156 5.6016-6.9062 2.0547-13.723 5.8789-20.441 11.48l-8.957 9.5195-8.9609 12.316c-10.082 14-16.613 23.43-19.602 28.281-7.4688 10.641-13.535 21-18.199 31.078l11.762-2.5195c11.199-2.8008 17.641-4.4805 19.316-5.043l18.199-5.3164c2.4297-0.93359 8.1211-3.4531 17.082-7.5625 21.465-9.8945 40.785-23.426 57.957-40.602 13.254-14 24.734-29.68 34.441-47.039-4.4805 1.1172-10.082 2.2383-16.801 3.3594-1.3086 0.37109-10.453 1.5859-27.441 3.6406-10.641 1.6836-16.703 2.6172-18.199 2.8047zm-88.48-12.039c-2.9844 1.6797-6.3477 2.9844-10.078 3.918l-9.5195 1.1211c-6.1602 0.37109-12.414 0.37109-18.762 0l-58.238 0.5625c-9.1484 0.37109-16.332 0.46484-21.562 0.27734-6.5312-0.5625-10.359-0.93359-11.48-1.1211l-4.1992-0.83984c-1.1211 2.0547-2.5195 4.1055-4.1992 6.1602-4.8516 6.3477-8.2148 10.922-10.082 13.723 3.5469 3.1719 6.7227 6.625 9.5195 10.359 4.668 5.7891 8.8672 12.227 12.602 19.32 2.4258 4.4805 5.1328 10.27 8.1211 17.359l10.918 25.762c3.3594 7.2773 6.2539 13.531 8.6836 18.758 22.773 2.2422 47.227 1.4961 73.359-2.2383 0.5625-2.8008 1.3984-5.3164 2.5195-7.5625 5.6016-11.387 12.414-22.957 20.438-34.719 4.1055-6.1602 10.922-15.684 20.438-28.562 4.8516-6.1602 8.1211-10.27 9.8008-12.32l1.6836-1.957c-11.762-13.441-19.883-24.082-24.359-31.922-1.8672 1.4922-3.7344 2.8008-5.6016 3.9219zm11.199-168.56c-4.4805-2.4297-8.8672-4.9453-13.16-7.5625l-10.641-7.8398c-0.74609-0.5625-6.4375-4.9453-17.078-13.16-12.32-10.078-19.32-15.68-21-16.801l-8.1211-6.1602c-0.375 0.375-0.74609 0.65234-1.1211 0.83984-1.3047-0.37109-2.5195-3.5469-3.6406-9.5195-2.6133-11.574-3.918-30.895-3.918-57.961l-4.4805-0.83984-21.562-7.2812c-15.863-6.3477-26.039-10.547-30.52-12.602-12.32-5.4102-23.52-11.293-33.602-17.641-2.4297-1.3086-4.7617-3.3594-7-6.1602-0.1875-0.1875-0.375-0.37109-0.5625-0.55859-7.4688 2.8008-14.934 6.1562-22.398 10.078-16.426 8.5859-31.176 19.039-44.238 31.359 0.5625 0.5625 1.1172 1.3086 1.6797 2.2383 2.0547 3.1758 3.2695 6.2539 3.6406 9.2383 3.1758 12.32 5.5078 25.574 7 39.762 0.74609 6.3477 1.6836 17.922 2.8008 34.723l0.28125 24.078c0 1.8672-0.375 4.3867-1.1211 7.5625-0.1875 0.5625-0.27734 1.2148-0.27734 1.9609 19.414 9.1484 33.602 16.703 42.562 22.68 0.37109-0.93359 0.93359-1.8672 1.6797-2.8008 4.8516-6.5312 12.227-13.16 22.121-19.879 4.293-2.9883 12.504-7.9336 24.641-14.844 3.918-2.0547 7.9336-4.5703 12.039-7.5586 4.8516-2.9883 8.7734-5.6953 11.762-8.1211 7.6523-5.6016 15.027-10.547 22.117-14.84 11.199-6.1602 17.547-8.0273 19.043-5.6016 1.3047 2.2383-2.5195 7.3711-11.48 15.398-6.1602 5.6016-13.066 11.293-20.719 17.078l-12.602 8.6836c-3.9219 2.9844-8.1211 5.6016-12.602 7.8398-12.883 7.6523-20.906 12.508-24.082 14.562-8.2148 5.4102-14.465 10.918-18.762 16.52-2.4258 3.3594-3.7305 6.3477-3.918 8.9609l-0.5625 5.3203 0.5625 5.8789c0.37109 4.293 2.0547 12.414 5.0391 24.359l20.723 69.438c0.74609 2.6133 1.6797 6.0664 2.8008 10.359 0.74609 2.8008 1.957 4.8516 3.6406 6.1602 0.37109 0.55859 0.74609 0.83984 1.1172 0.83984l1.6836 0.5625 14 1.957 41.16-0.55859c8.7734 0.1875 21.652 0.37109 38.641 0.55859 6.1602 0.375 12.039 0.375 17.641 0l7.8398-0.83984c2.2383-0.5625 4.1055-1.3984 5.6016-2.5195 5.4141-3.3594 10.828-11.297 16.238-23.801 2.0547-4.668 5.6953-13.906 10.922-27.723l18.48-49.84c3.1758-9.1484 5.043-16.148 5.6016-21l-0.27734-4.1992-0.83984-3.9219c-0.93359-1.8633-2.6133-4.1992-5.0391-7-4.3086-4.4648-13.547-11.09-27.734-19.863zm128.24 48.441c-4.8516-5.6016-12.414-14.469-22.68-26.602l-8.6836-11.48c-23.148 10.078-40.316 16.332-51.52 18.758l-2.8008 0.28125c0.37109 2.0547 0.5625 4.3867 0.5625 7-0.375 5.0391-2.1484 12.973-5.3203 23.801l-22.398 64.398c-1.1211 3.5469-3.0781 8.3086-5.8789 14.277-2.4297 6.5352-4.9453 11.668-7.5625 15.398-0.5625 1.1211-1.1211 2.2383-1.6836 3.3594 7.2812 5.4141 16.988 15.027 29.121 28.84 7.6523-5.9727 15.586-10.172 23.801-12.602 6.9062-2.2383 14.469-3.7305 22.68-4.4805l46.762-2.5195c2.0547 0 8.7734-0.37109 20.16-1.1172 0-0.5625 0.09375-1.0273 0.27734-1.3984l6.7227-14.281c1.4922-2.6133 2.4258-4.9453 2.8008-7l2.8008-7.2773c1.1211-2.8008 3.7305-12.227 7.8398-28.281 0.5625-1.4922 1.4922-6.2539 2.8008-14.277 0.93359-4.668 1.5859-8.4922 1.9609-11.48-0.74609-0.1875-1.3984-0.375-1.9609-0.5625-3.5469-1.3086-6.3477-2.9844-8.3984-5.0391-9.8984-8.0234-19.695-17.262-29.402-27.715zm-31.363-175c1.3086 6.3477 1.4961 15.398 0.5625 27.16l-3.0781 28c-1.8672 17.918-2.2383 30.895-1.1211 38.918 0.5625 7.6523 2.8008 15.215 6.7227 22.684l2.8008 5.3164 14 17.359c11.387 13.066 18.945 21.562 22.68 25.48 9.3359 10.078 18.48 18.852 27.438 26.316 0.93359 0.93359 1.6836 1.6836 2.2422 2.2383 0.55859-5.9727 0.74609-10.824 0.55859-14.559l-1.957-38.082-2.2422-12.039c-1.8633-14-5.6016-28.746-11.199-44.238-9.7031-25.762-22.773-47.973-39.199-66.641-5.9766-6.9023-12.047-12.875-18.207-17.914zm-72.238-40.043 34.16 9.5195c2.6133 0.93359 6.7227 2.707 12.32 5.3203 17.918 8.7734 34.812 21.84 50.68 39.199 8.5859 10.078 16.055 20.348 22.398 30.801 7.4688 12.133 13.723 24.922 18.762 38.359 6.3477 16.613 10.547 31.824 12.602 45.641l3.3594 25.48c0.1875 2.0547 0.55859 10.922 1.1172 26.602 0 40.32-9.0547 79.242-27.16 116.76-11.012 21.094-24.359 39.945-40.039 56.562-18.105 17.922-38.641 32.199-61.602 42.84l-9.2383 4.1992c-3.9219 1.8672-6.9062 3.082-8.9609 3.6406l-59.359 15.121c-30.426 5.2266-59.547 6.4375-87.359 3.6406-32.297-3.3594-62.254-12.973-89.883-28.84l-15.961-10.078-23.52-21c-2.2383-2.0547-5.2266-5.2266-8.9609-9.5195l-8.1211-10.078c-6.9062-9.1484-11.852-16.242-14.84-21.281l-13.438-22.68c-5.4141-10.641-9.4258-18.574-12.039-23.801l-5.0391-12.883c-2.0547-4.293-3.6406-8.5859-4.7617-12.879l-7.5625-27.16c-8.7734-38.453-8.2148-77 1.6797-115.64 5.7891-21.094 12.973-40.039 21.562-56.84 9.5195-19.785 21.652-37.148 36.398-52.082 14.934-15.492 32.574-28.371 52.922-38.641 19.785-10.453 40.973-17.73 63.562-21.84 6.9062-1.4922 15.773-2.5195 26.602-3.0781 12.504-0.74609 24.078-0.46875 34.719 0.83984 10.641 1.1172 20.348 3.0781 29.121 5.8789 8.3984 2.4297 12.316 4.3867 11.762 5.8828 0 0.1875-0.09375 0.46484-0.28125 0.83984l5.0391 0.83984c25.012 3.7266 44.801 7.1797 59.359 10.352zm0 4.4805-1.9609-0.5625c-30.238-6.3477-49.746-10.453-58.52-12.316l-7.2812-1.9609c-2.2383 0.1875-5.4102 0.1875-9.5195 0-11.762-0.74609-21.281-1.2148-28.562-1.3984-22.961-0.5625-42.277 1.0273-57.961 4.7617-7.0938 1.3086-14.094 2.9844-21 5.0391 9.1484 5.6016 19.602 11.105 31.359 16.52 3.3594 1.4922 13.254 5.6016 29.68 12.316l19.32 7.5625 5.6016 1.1211c7.8398 0.93359 15.215 0.65234 22.121-0.84375 7.6523-1.6797 19.133-5.8789 34.438-12.602l24.078-11.199c7.4766-3.168 13.543-5.3164 18.207-6.4375zm19.32 5.6016-13.16-3.918-43.961 24.918c-10.078 5.4141-15.309 8.2148-15.68 8.3984l-9.8008 3.9219c-5.4141 1.8633-9.0547 2.9844-10.922 3.3594-4.6641 1.3047-9.332 2.1484-14 2.5195 0 26.508-1.2148 45.547-3.6406 57.121-0.93359 4.1055-1.7734 6.9062-2.5195 8.3984l9.2422 4.7617c1.1172 0.55859 8.6797 5.5039 22.68 14.84 6.9062 4.8516 12.879 8.8633 17.922 12.039l23.801 14c8.7734 4.8516 13.812 7.7461 15.117 8.6797 5.7852 3.7344 11.016 7.6523 15.684 11.762 3.1719 3.5469 5.3164 6.6289 6.4375 9.2383l1.1172-1.3984c8.9609-6.3477 24.359-14.465 46.199-24.359l-1.1172-1.9609c-3.9219-8.9609-6.1602-18.016-6.7227-27.16-0.37109-7.0938-0.09375-14.84 0.83984-23.238 0.5625-5.9727 1.4961-12.227 2.8008-18.762l5.6016-27.438c2.6133-12.32 4.1055-21 4.4805-26.039l0.5625-1.6836c-8.9609-7.6523-18.199-13.719-27.723-18.199-6.9062-3.7344-14.652-7-23.238-9.8008z" fill-rule="evenodd"/>
 </g>
</svg>
