<?xml version="1.0" encoding="UTF-8"?>
<svg width="224px" height="153px"  version="1.1" viewBox="0 0 700 700" xmlns="http://www.w3.org/2000/svg" xmlns:xlink="http://www.w3.org/1999/xlink">
 <defs>
  <symbol id="t" overflow="visible">
   <path d="m3.6562-0.21875c-0.1875 0.09375-0.38672 0.16797-0.59375 0.21875-0.19922 0.050781-0.40625 0.078125-0.625 0.078125-0.66797 0-1.1992-0.17969-1.5938-0.54688-0.38672-0.375-0.57812-0.87891-0.57812-1.5156 0-0.64453 0.19141-1.1484 0.57812-1.5156 0.39453-0.375 0.92578-0.5625 1.5938-0.5625 0.21875 0 0.42578 0.027344 0.625 0.078125 0.20703 0.054687 0.40625 0.125 0.59375 0.21875v0.82812c-0.1875-0.125-0.375-0.21875-0.5625-0.28125-0.17969-0.0625-0.37109-0.09375-0.57812-0.09375-0.36719 0-0.65625 0.12109-0.875 0.35938-0.21094 0.23047-0.3125 0.55469-0.3125 0.96875 0 0.40625 0.10156 0.73047 0.3125 0.96875 0.21875 0.23047 0.50781 0.34375 0.875 0.34375 0.20703 0 0.39844-0.023437 0.57812-0.078125 0.1875-0.0625 0.375-0.16016 0.5625-0.29688z"/>
  </symbol>
  <symbol id="c" overflow="visible">
   <path d="m2.6875-2.1719c-0.085938-0.039063-0.16797-0.070313-0.25-0.09375-0.085938-0.019531-0.16797-0.03125-0.25-0.03125-0.25 0-0.44531 0.085937-0.57812 0.25-0.125 0.15625-0.1875 0.38281-0.1875 0.67188v1.375h-0.96875v-2.9844h0.96875v0.48438c0.11328-0.19531 0.25-0.33594 0.40625-0.42188 0.16406-0.09375 0.35938-0.14062 0.57812-0.14062h0.10938c0.039063 0 0.09375 0.007812 0.15625 0.015625z"/>
  </symbol>
  <symbol id="b" overflow="visible">
   <path d="m3.4375-1.5v0.26562h-2.2344c0.03125 0.23047 0.11328 0.40234 0.25 0.51562 0.13281 0.10547 0.32812 0.15625 0.57812 0.15625 0.20703 0 0.41406-0.023438 0.625-0.078125 0.20703-0.0625 0.42188-0.15625 0.64062-0.28125v0.73438c-0.21875 0.09375-0.44531 0.16406-0.67188 0.20312-0.23047 0.039062-0.45312 0.0625-0.67188 0.0625-0.54297 0-0.96484-0.13281-1.2656-0.40625-0.30469-0.28125-0.45312-0.67188-0.45312-1.1719 0-0.47656 0.14453-0.85938 0.4375-1.1406 0.30078-0.28125 0.70703-0.42188 1.2188-0.42188 0.46875 0 0.84375 0.14062 1.125 0.42188s0.42188 0.66406 0.42188 1.1406zm-0.96875-0.32812c0-0.17578-0.058594-0.31641-0.17188-0.42188-0.10547-0.11328-0.24219-0.17188-0.40625-0.17188-0.1875 0-0.33984 0.054687-0.45312 0.15625-0.11719 0.10547-0.1875 0.25-0.21875 0.4375z"/>
  </symbol>
  <symbol id="d" overflow="visible">
   <path d="m1.7969-1.3438c-0.19922 0-0.35156 0.039062-0.45312 0.10938-0.09375 0.0625-0.14062 0.16406-0.14062 0.29688 0 0.11719 0.035156 0.21094 0.10938 0.28125 0.082031 0.0625 0.19531 0.09375 0.34375 0.09375 0.17578 0 0.32812-0.0625 0.45312-0.1875s0.1875-0.28516 0.1875-0.48438v-0.10938zm1.4688-0.35938v1.7031h-0.96875v-0.4375c-0.125 0.17969-0.27344 0.30859-0.4375 0.39062-0.15625 0.082031-0.35156 0.125-0.57812 0.125-0.3125 0-0.57031-0.085938-0.76562-0.26562-0.1875-0.1875-0.28125-0.42188-0.28125-0.70312 0-0.35156 0.11719-0.61328 0.35938-0.78125 0.23828-0.16406 0.61719-0.25 1.1406-0.25h0.5625v-0.0625c0-0.15625-0.0625-0.26562-0.1875-0.32812-0.11719-0.070312-0.29688-0.10938-0.54688-0.10938-0.21094 0-0.40234 0.023437-0.57812 0.0625-0.17969 0.042969-0.33984 0.10156-0.48438 0.17188v-0.71875c0.19531-0.050781 0.39844-0.085938 0.60938-0.10938 0.20703-0.03125 0.41406-0.046875 0.625-0.046875 0.53906 0 0.92969 0.10938 1.1719 0.32812 0.23828 0.21094 0.35938 0.55469 0.35938 1.0312z"/>
  </symbol>
  <symbol id="a" overflow="visible">
   <path d="m1.5-3.8438v0.85938h0.98438v0.67188h-0.98438v1.2812c0 0.13672 0.023438 0.23047 0.078125 0.28125 0.0625 0.042969 0.17578 0.0625 0.34375 0.0625h0.48438v0.6875h-0.8125c-0.38672 0-0.65625-0.078125-0.8125-0.23438s-0.23438-0.42188-0.23438-0.79688v-1.2812h-0.46875v-0.67188h0.46875v-0.85938z"/>
  </symbol>
  <symbol id="i" overflow="visible">
   <path d="m2.5-2.5469v-1.6094h0.95312v4.1562h-0.95312v-0.4375c-0.13672 0.17969-0.28125 0.30859-0.4375 0.39062-0.15625 0.082031-0.33984 0.125-0.54688 0.125-0.375 0-0.68359-0.14453-0.92188-0.4375-0.23047-0.28906-0.34375-0.67188-0.34375-1.1406 0-0.45703 0.11328-0.83203 0.34375-1.125 0.23828-0.28906 0.54688-0.4375 0.92188-0.4375 0.19531 0 0.375 0.042969 0.53125 0.125 0.16406 0.085938 0.31641 0.21484 0.45312 0.39062zm-0.64062 1.9375c0.20703 0 0.36328-0.070313 0.46875-0.21875 0.11328-0.15625 0.17188-0.37891 0.17188-0.67188 0-0.28125-0.058594-0.49219-0.17188-0.64062-0.10547-0.15625-0.26172-0.23438-0.46875-0.23438-0.19922 0-0.35547 0.078125-0.46875 0.23438-0.10547 0.14844-0.15625 0.35938-0.15625 0.64062 0 0.29297 0.050781 0.51562 0.15625 0.67188 0.11328 0.14844 0.26953 0.21875 0.46875 0.21875z"/>
  </symbol>
  <symbol id="h" overflow="visible">
   <path d="m2.0469-0.60938c0.20703 0 0.36328-0.070313 0.46875-0.21875 0.11328-0.15625 0.17188-0.37891 0.17188-0.67188 0-0.28125-0.058594-0.49219-0.17188-0.64062-0.10547-0.15625-0.26172-0.23438-0.46875-0.23438-0.19922 0-0.35547 0.078125-0.46875 0.23438-0.10547 0.14844-0.15625 0.35938-0.15625 0.64062 0 0.29297 0.050781 0.51562 0.15625 0.67188 0.11328 0.14844 0.26953 0.21875 0.46875 0.21875zm-0.625-1.9375c0.125-0.17578 0.26562-0.30469 0.42188-0.39062 0.16406-0.082031 0.35156-0.125 0.5625-0.125 0.36328 0 0.66406 0.14844 0.90625 0.4375 0.23828 0.29297 0.35938 0.66797 0.35938 1.125 0 0.46875-0.12109 0.85156-0.35938 1.1406-0.24219 0.29297-0.54297 0.4375-0.90625 0.4375-0.21094 0-0.39844-0.042969-0.5625-0.125-0.15625-0.082031-0.29688-0.21094-0.42188-0.39062v0.4375h-0.96875v-4.1562h0.96875z"/>
  </symbol>
  <symbol id="g" overflow="visible">
   <path d="m0.0625-2.9844h0.95312l0.8125 2.0156 0.6875-2.0156h0.95312l-1.2656 3.2656c-0.125 0.33203-0.27344 0.56641-0.4375 0.70312-0.16797 0.13281-0.39062 0.20312-0.67188 0.20312h-0.54688v-0.64062h0.29688c0.16406 0 0.28516-0.027344 0.35938-0.078125 0.070313-0.054688 0.12891-0.14062 0.17188-0.26562l0.03125-0.09375z"/>
  </symbol>
  <symbol id="f" overflow="visible">
   <path d="m0.5-3.9844h2.7812v0.78125h-1.75v0.73438h1.6406v0.78125h-1.6406v1.6875h-1.0312z"/>
  </symbol>
  <symbol id="s" overflow="visible">
   <path d="m0.45312-4.1562h0.96875v4.1562h-0.96875z"/>
  </symbol>
  <symbol id="r" overflow="visible">
   <path d="m2.4219-4.1562v0.625h-0.51562c-0.13672 0-0.23438 0.027344-0.29688 0.078125-0.054687 0.054687-0.078125 0.13672-0.078125 0.25v0.21875h0.82812v0.67188h-0.82812v2.3125h-0.95312v-2.3125h-0.46875v-0.67188h0.46875v-0.21875c0-0.32031 0.085937-0.5625 0.26562-0.71875 0.1875-0.15625 0.47266-0.23438 0.85938-0.23438z"/>
  </symbol>
  <symbol id="e" overflow="visible">
   <path d="m1.875-2.375c-0.21094 0-0.37109 0.078125-0.48438 0.23438-0.10547 0.14844-0.15625 0.35938-0.15625 0.64062 0 0.29297 0.050781 0.51562 0.15625 0.67188 0.11328 0.14844 0.27344 0.21875 0.48438 0.21875 0.20703 0 0.36719-0.070313 0.48438-0.21875 0.11328-0.15625 0.17188-0.37891 0.17188-0.67188 0-0.28125-0.058594-0.49219-0.17188-0.64062-0.11719-0.15625-0.27734-0.23438-0.48438-0.23438zm0-0.6875c0.51953 0 0.92188 0.14062 1.2031 0.42188 0.28906 0.27344 0.4375 0.65234 0.4375 1.1406 0 0.5-0.14844 0.89062-0.4375 1.1719-0.28125 0.27344-0.68359 0.40625-1.2031 0.40625-0.51172 0-0.91406-0.13281-1.2031-0.40625-0.29297-0.28125-0.4375-0.67188-0.4375-1.1719 0-0.48828 0.14453-0.86719 0.4375-1.1406 0.28906-0.28125 0.69141-0.42188 1.2031-0.42188z"/>
  </symbol>
  <symbol id="q" overflow="visible">
   <path d="m3.2344-2.5c0.11328-0.17578 0.25391-0.3125 0.42188-0.40625 0.16406-0.10156 0.35156-0.15625 0.5625-0.15625 0.33203 0 0.58594 0.10938 0.76562 0.32812 0.1875 0.21094 0.28125 0.51172 0.28125 0.90625v1.8281h-0.96875v-1.5625c0.007813-0.019531 0.015625-0.039062 0.015625-0.0625v-0.10938c0-0.21875-0.03125-0.375-0.09375-0.46875s-0.16406-0.14062-0.29688-0.14062c-0.1875 0-0.33594 0.078125-0.4375 0.23438-0.09375 0.14844-0.14062 0.35938-0.14062 0.64062v1.4688h-0.96875v-1.5625c0-0.33203-0.03125-0.54688-0.09375-0.64062-0.054688-0.09375-0.15234-0.14062-0.29688-0.14062-0.17969 0-0.32031 0.078125-0.42188 0.23438-0.09375 0.14844-0.14062 0.35938-0.14062 0.64062v1.4688h-0.96875v-2.9844h0.96875v0.4375c0.11328-0.17578 0.24219-0.30469 0.39062-0.39062 0.15625-0.082031 0.32812-0.125 0.51562-0.125 0.20703 0 0.39062 0.054688 0.54688 0.15625 0.15625 0.09375 0.27344 0.23047 0.35938 0.40625z"/>
  </symbol>
  <symbol id="p" overflow="visible">
   <path d="m3.4688-1.8281v1.8281h-0.96875v-1.3906c0-0.25781-0.007812-0.4375-0.015625-0.53125-0.011719-0.10156-0.03125-0.17578-0.0625-0.21875-0.03125-0.0625-0.085937-0.10938-0.15625-0.14062-0.0625-0.039062-0.13281-0.0625-0.20312-0.0625-0.21094 0-0.37109 0.078125-0.48438 0.23438-0.10547 0.15625-0.15625 0.37109-0.15625 0.64062v1.4688h-0.96875v-4.1562h0.96875v1.6094c0.13281-0.17578 0.28516-0.30469 0.45312-0.39062 0.16406-0.082031 0.34375-0.125 0.53125-0.125 0.34375 0 0.60156 0.10938 0.78125 0.32812 0.1875 0.21094 0.28125 0.51172 0.28125 0.90625z"/>
  </symbol>
  <symbol id="o" overflow="visible">
   <path d="m0.5-3.9844h1.1562l1.4375 2.7344v-2.7344h0.98438v3.9844h-1.1562l-1.4375-2.7344v2.7344h-0.98438z"/>
  </symbol>
  <symbol id="n" overflow="visible">
   <path d="m0.42188-1.1719v-1.8125h0.96875v0.29688 0.60938 0.48438c0 0.24219 0.003906 0.41797 0.015625 0.53125 0.007812 0.10547 0.03125 0.17969 0.0625 0.21875 0.039062 0.0625 0.09375 0.11719 0.15625 0.15625 0.0625 0.03125 0.13281 0.046875 0.21875 0.046875 0.19531 0 0.35156-0.078125 0.46875-0.23438 0.11328-0.15625 0.17188-0.36719 0.17188-0.64062v-1.4688h0.95312v2.9844h-0.95312v-0.4375c-0.14844 0.17969-0.30469 0.30859-0.46875 0.39062-0.15625 0.082031-0.33594 0.125-0.53125 0.125-0.34375 0-0.60938-0.10156-0.79688-0.3125-0.17969-0.21875-0.26562-0.53125-0.26562-0.9375z"/>
  </symbol>
  <symbol id="m" overflow="visible">
   <path d="m3.4688-1.8281v1.8281h-0.96875v-1.3906c0-0.25781-0.007812-0.4375-0.015625-0.53125-0.011719-0.10156-0.03125-0.17578-0.0625-0.21875-0.03125-0.0625-0.085937-0.10938-0.15625-0.14062-0.0625-0.039062-0.13281-0.0625-0.20312-0.0625-0.21094 0-0.37109 0.078125-0.48438 0.23438-0.10547 0.15625-0.15625 0.37109-0.15625 0.64062v1.4688h-0.96875v-2.9844h0.96875v0.4375c0.13281-0.17578 0.28516-0.30469 0.45312-0.39062 0.16406-0.082031 0.34375-0.125 0.53125-0.125 0.34375 0 0.60156 0.10938 0.78125 0.32812 0.1875 0.21094 0.28125 0.51172 0.28125 0.90625z"/>
  </symbol>
  <symbol id="l" overflow="visible">
   <path d="m0.5-3.9844h1.7031c0.50781 0 0.89844 0.11719 1.1719 0.34375 0.26953 0.21875 0.40625 0.53906 0.40625 0.95312 0 0.41797-0.13672 0.74219-0.40625 0.96875-0.27344 0.21875-0.66406 0.32812-1.1719 0.32812h-0.67188v1.3906h-1.0312zm1.0312 0.75v1.1094h0.5625c0.19531 0 0.34766-0.046875 0.45312-0.14062 0.11328-0.10156 0.17188-0.24219 0.17188-0.42188 0-0.17578-0.058594-0.3125-0.17188-0.40625-0.10547-0.09375-0.25781-0.14062-0.45312-0.14062z"/>
  </symbol>
  <symbol id="k" overflow="visible">
   <path d="m0.45312-2.9844h0.96875v2.9375c0 0.39453-0.10156 0.69531-0.29688 0.90625-0.1875 0.21875-0.46484 0.32812-0.82812 0.32812h-0.48438v-0.64062h0.17188c0.17578 0 0.29688-0.042969 0.35938-0.125 0.070312-0.074219 0.10938-0.23047 0.10938-0.46875zm0-1.1719h0.96875v0.78125h-0.96875z"/>
  </symbol>
  <symbol id="j" overflow="visible">
   <path d="m2.875-2.8906v0.76562c-0.125-0.082031-0.25781-0.14453-0.39062-0.1875-0.13672-0.039062-0.27344-0.0625-0.40625-0.0625-0.27344 0-0.48047 0.078125-0.625 0.23438-0.14844 0.15625-0.21875 0.37109-0.21875 0.64062 0 0.28125 0.070313 0.5 0.21875 0.65625 0.14453 0.15625 0.35156 0.23438 0.625 0.23438 0.14453 0 0.28516-0.019531 0.42188-0.0625 0.13281-0.039063 0.25781-0.10938 0.375-0.20312v0.78125c-0.14844 0.0625-0.29688 0.10156-0.45312 0.125-0.15625 0.03125-0.3125 0.046875-0.46875 0.046875-0.54297 0-0.96484-0.13281-1.2656-0.40625-0.30469-0.28125-0.45312-0.67188-0.45312-1.1719 0-0.48828 0.14844-0.86719 0.45312-1.1406 0.30078-0.28125 0.72266-0.42188 1.2656-0.42188 0.15625 0 0.3125 0.015625 0.46875 0.046875 0.15625 0.023437 0.30469 0.0625 0.45312 0.125z"/>
  </symbol>
 </defs>
 <g>
  <path d="m253.62 297.77h-32.258v32.258h32.258zm-32.262 71.543h32.258l0.003907-32.258h-32.258zm71.543-71.543h-32.262v32.258h32.262zm-32.262 71.543h32.262v-32.258h-32.262zm35.77 6.9961h-78.566c-1.9414 0-3.5117-1.5703-3.5117-3.5117v-78.535c0-1.9414 1.5703-3.5117 3.5117-3.5117h78.566c1.9141 0 3.4844 1.5703 3.4844 3.5117v78.535c0.003906 1.9414-1.5664 3.5117-3.4844 3.5117zm52.215-12.363c-0.88281 1.7969-3.082 2.5391-4.8828 1.6562-1.7969-0.88672-2.5391-3.082-1.6562-4.8828 6.1367-12.391 14.102-23.922 23.781-34.203 9.3086-9.9336 20.27-18.699 32.66-25.863 12.445-7.168 25.492-12.277 38.738-15.387 13.73-3.2266 27.723-4.3398 41.477-3.4844 2.0273 0.14453 3.543 1.8828 3.4297 3.8828s-1.8594 3.5391-3.8867 3.4258c-13.043-0.82813-26.32 0.23047-39.367 3.2852-12.586 2.9688-24.977 7.793-36.738 14.59-11.766 6.793-22.156 15.133-31.004 24.551-9.1602 9.7344-16.727 20.699-22.551 32.43zm33.629 14.73c-0.91406 1.7695-3.1094 2.4844-4.9102 1.5703-1.7695-0.94141-2.4844-3.1406-1.5703-4.9102 4.5938-8.8203 10.449-17.074 17.473-24.41 6.7656-7.082 14.672-13.359 23.637-18.527 8.9375-5.1367 18.297-8.8516 27.863-11.191 9.8477-2.4297 19.926-3.3672 29.832-2.9102 1.9961 0.085937 3.5664 1.7969 3.4805 3.7969-0.085938 2-1.8008 3.5703-3.7969 3.4844-9.2773-0.39844-18.645 0.45703-27.805 2.7109-8.9102 2.1719-17.641 5.625-25.953 10.418-8.3047 4.7969-15.672 10.648-22.008 17.273-6.5312 6.8242-11.984 14.473-16.242 22.695zm35.66 15.73c-1 1.7422-3.2266 2.3398-4.9727 1.3438-1.7383-1-2.3672-3.2227-1.3711-4.9648 2.9141-5.082 6.4844-9.793 10.707-14.016l0.19922-0.20312c4.0273-3.9688 8.6523-7.5352 13.82-10.504 5.2539-3.0547 10.734-5.3086 16.301-6.793 5.7383-1.5156 11.617-2.2578 17.441-2.2578 2.0273 0 3.6523 1.6562 3.6523 3.6562 0 1.9961-1.625 3.6523-3.6523 3.6523-5.168-0.027344-10.422 0.62891-15.559 2-4.9961 1.3438-9.8789 3.3398-14.531 6.0234-4.5938 2.6562-8.707 5.8242-12.301 9.3945l-0.19922 0.20312c-3.7695 3.7578-6.9375 7.9531-9.5352 12.465zm44.793 4.1406c-2.3125-0.59766-4.8555-0.34375-7.1094 0.94141-2.2266 1.2852-3.7422 3.3672-4.3438 5.6797-0.625 2.3125-0.36719 4.8828 0.91406 7.1055 1.2852 2.2266 3.3711 3.7422 5.6797 4.3672 2.3164 0.60156 4.8828 0.34375 7.1094-0.94141 2.2578-1.2852 3.7695-3.3672 4.3672-5.6797 0.62891-2.3125 0.37109-4.8828-0.91406-7.1094-1.3086-2.2227-3.3906-3.7383-5.7031-4.3633zm-10.594-5.1094c3.9102-2.2852 8.3672-2.7383 12.422-1.6562 4.0234 1.0859 7.6758 3.7109 9.9336 7.6211 2.2539 3.9102 2.7109 8.3945 1.6289 12.418-1.0859 4.0547-3.7148 7.6797-7.625 9.9336-3.9102 2.2852-8.3945 2.7422-12.418 1.6562-4.0273-1.082-7.6797-3.7109-9.9336-7.6211-2.2578-3.9102-2.7148-8.3945-1.6562-12.418 1.082-4.0547 3.7383-7.6797 7.6484-9.9336zm-319.11-11.535c3.2852-0.85547 6.8242-0.71484 10.137 0.54297l12.758-19.301c0.57031-1.1133 1.7422-1.8828 3.082-1.8828h27.664v-41.367h-24.52c-0.36719 1.5977-0.96875 3.168-1.8281 4.6797-2.2539 3.9102-5.9062 6.5391-9.9336 7.6211-4.0547 1.0859-8.5078 0.59766-12.418-1.6562s-6.5391-5.8789-7.625-9.9336c-1.082-4.0234-0.625-8.5078 1.6289-12.418 2.2578-3.9102 5.9102-6.5391 9.9336-7.6211 4.0547-1.082 8.5078-0.625 12.422 1.625 3.9102 2.2852 6.5625 5.9102 7.6484 9.9648l0.16797 0.71484h24.523v-41.367h-27.66c-0.68359 0-1.3398-0.23047-1.9102-0.57031l-29.719-15.59c-2.1992 2.6562-5.1406 4.4531-8.3047 5.3086-4.0273 1.0859-8.5117 0.62891-12.422-1.6289-3.9102-2.2539-6.5625-5.9102-7.6172-9.9648-1.0859-4.0234-0.62891-8.4805 1.625-12.418 2.2578-3.9102 5.9102-6.5391 9.9375-7.625 4.0547-1.082 8.5078-0.625 12.418 1.6562 3.9102 2.2539 6.5625 5.8828 7.6523 9.9336 0.71484 2.7422 0.74219 5.7109-0.027344 8.5625l29.203 15.301h26.836v-43.164h318.37v43.164h32.176l29.203-15.301c-0.76953-2.8555-0.74609-5.8242-0.03125-8.5625 1.0859-4.0547 3.7422-7.6797 7.6523-9.9336 3.9102-2.2852 8.3633-2.7422 12.418-1.6562 4.0273 1.0859 7.6758 3.7109 9.9336 7.625 2.2578 3.9414 2.7109 8.3945 1.625 12.445-1.0859 4.0273-3.7109 7.6797-7.625 9.9336-3.9102 2.2578-8.3906 2.7109-12.418 1.6289-3.168-0.85547-6.1094-2.6562-8.3047-5.3086l-29.723 15.59c-0.56641 0.34375-1.2227 0.57031-1.9102 0.57031h-33v41.367h29.859l0.17188-0.74219c1.082-4.0273 3.7383-7.6523 7.6484-9.9375 3.9102-2.2539 8.3633-2.7109 12.418-1.625 4.0273 1.0859 7.6797 3.7109 9.9336 7.6211 2.2578 3.9102 2.7148 8.3945 1.6289 12.418-1.0547 4.0547-3.7109 7.6797-7.625 9.9336-3.9062 2.2539-8.3906 2.7422-12.418 1.6562-4.0234-1.082-7.6758-3.7109-9.9336-7.6211-0.85547-1.5117-1.4531-3.082-1.8281-4.6797h-29.859v41.367h33c1.3438 0 2.5156 0.76953 3.1133 1.8828l12.734 19.301c3.3125-1.2539 6.8516-1.3984 10.133-0.54297 4.0273 1.0859 7.6797 3.7422 9.9336 7.6523 2.2578 3.9102 2.7109 8.3633 1.625 12.418-1.082 4.0234-3.7109 7.6797-7.625 9.9375-3.9062 2.2539-8.3906 2.7109-12.418 1.625-4.0547-1.082-7.6797-3.7109-9.9336-7.6211-2.2539-3.9102-2.7422-8.3945-1.6562-12.418 0.71484-2.6562 2.1133-5.168 4.1133-7.1953l-11.906-18.012h-31.113v77.449h-318.37v-77.449h-25.781l-11.902 18.012c1.9961 2.0273 3.3984 4.5391 4.1133 7.1953 1.0547 4.0234 0.59766 8.5078-1.6562 12.418-2.2539 3.9102-5.8828 6.5391-9.9336 7.6211-4.0234 1.0859-8.5078 0.62891-12.418-1.625-3.9102-2.2578-6.5391-5.9102-7.625-9.9375-1.082-4.0547-0.625-8.5078 1.6289-12.418 2.2812-3.9062 5.9102-6.5625 9.9297-7.6484zm257.59-279.66c1.6289 1.0273 2.1094 3.1992 1.0859 4.8242-1.0273 1.6289-3.1992 2.1133-4.8242 1.0859l-44.391-27.891-208.81 133.49c-1.625 1.0547-3.7969 0.57031-4.8203-1.0547-1.0586-1.6289-0.57031-3.7969 1.0547-4.8242l210.55-134.61c1.1133-0.79688 2.6523-0.88672 3.8516-0.11328zm-257.64 365.45c-1.9414 0-3.5117-1.5977-3.5117-3.5117 0-1.9414 1.5703-3.5117 3.5117-3.5117h324.13c1.9414 0 3.5117 1.5703 3.5117 3.5117 0 1.9102-1.5703 3.5117-3.5117 3.5117zm189.79 19.695c-1.9141 0-3.5117-1.5703-3.5117-3.5117 0-1.9141 1.5977-3.4844 3.5117-3.4844h224.3c1.9414 0 3.5117 1.5703 3.5117 3.4844 0 1.9414-1.5703 3.5117-3.5117 3.5117zm247.28 0c-1.9375 0-3.5078-1.5703-3.5078-3.5117 0-1.9141 1.5703-3.4844 3.5078-3.4844h28.035c1.9414 0 3.5117 1.5703 3.5117 3.4844 0 1.9414-1.5703 3.5117-3.5117 3.5117zm-449.86-0.59766c-1.9414 0-3.5117-1.5703-3.5117-3.4844 0-1.9414 1.5703-3.5117 3.5117-3.5117h106.29c1.9375 0 3.5078 1.5703 3.5078 3.5117 0 1.9141-1.5703 3.4844-3.5078 3.4844zm62.977-272.46h363.05l-202.18-127.07-198.72 127.07z" fill-rule="evenodd"/>
  
 </g>
</svg>
