<?xml version="1.0" encoding="UTF-8"?>
<svg width="224px" height="120px"   version="1.1" viewBox="0 0 700 700" xmlns="http://www.w3.org/2000/svg" xmlns:xlink="http://www.w3.org/1999/xlink">
 <defs>
  <symbol id="p" overflow="visible">
   <path d="m33.5-2c-1.7305 0.89844-3.5312 1.5703-5.4062 2.0156-1.8672 0.45703-3.8203 0.6875-5.8594 0.6875-6.0625 0-10.871-1.6914-14.422-5.0781-3.5547-3.3945-5.3281-8-5.3281-13.812 0-5.8203 1.7734-10.43 5.3281-13.828 3.5508-3.3945 8.3594-5.0938 14.422-5.0938 2.0391 0 3.9922 0.23047 5.8594 0.6875 1.875 0.44922 3.6758 1.1211 5.4062 2.0156v7.5469c-1.7422-1.1875-3.4609-2.0547-5.1562-2.6094-1.6875-0.55078-3.4688-0.82812-5.3438-0.82812-3.3555 0-5.9961 1.0742-7.9219 3.2188-1.918 2.1484-2.875 5.1094-2.875 8.8906 0 3.7617 0.95703 6.7148 2.875 8.8594 1.9258 2.1484 4.5664 3.2188 7.9219 3.2188 1.875 0 3.6562-0.27344 5.3438-0.82812 1.6953-0.55078 3.4141-1.4219 5.1562-2.6094z"/>
  </symbol>
  <symbol id="i" overflow="visible">
   <path d="m24.516-19.891c-0.77344-0.36328-1.5391-0.62891-2.2969-0.79688-0.75-0.17578-1.5078-0.26562-2.2656-0.26562-2.25 0-3.9844 0.72656-5.2031 2.1719-1.2109 1.4375-1.8125 3.5-1.8125 6.1875v12.594h-8.7344v-27.344h8.7344v4.4844c1.125-1.7812 2.4141-3.082 3.875-3.9062 1.457-0.82031 3.2031-1.2344 5.2344-1.2344 0.28906 0 0.60938 0.011719 0.95312 0.03125 0.34375 0.023438 0.83594 0.074219 1.4844 0.15625z"/>
  </symbol>
  <symbol id="b" overflow="visible">
   <path d="m31.5-13.75v2.5h-20.438c0.20703 2.0547 0.94531 3.5898 2.2188 4.6094 1.2695 1.0234 3.0469 1.5312 5.3281 1.5312 1.832 0 3.7109-0.26953 5.6406-0.8125 1.9375-0.53906 3.9219-1.3672 5.9531-2.4844v6.75c-2.0742 0.78125-4.1406 1.3711-6.2031 1.7656s-4.1328 0.59375-6.2031 0.59375c-4.9492 0-8.793-1.2539-11.531-3.7656-2.7422-2.5195-4.1094-6.0469-4.1094-10.578 0-4.4688 1.3438-7.9766 4.0312-10.531 2.6953-2.5508 6.4062-3.8281 11.125-3.8281 4.2891 0 7.7266 1.2969 10.312 3.8906 2.582 2.5859 3.875 6.0391 3.875 10.359zm-8.9844-2.9062c0-1.6562-0.48438-2.9883-1.4531-4-0.96875-1.0195-2.2344-1.5312-3.7969-1.5312-1.6992 0-3.0781 0.47656-4.1406 1.4219-1.0547 0.94922-1.7109 2.3203-1.9688 4.1094z"/>
  </symbol>
  <symbol id="a" overflow="visible">
   <path d="m16.453-12.312c-1.8242 0-3.1953 0.3125-4.1094 0.9375-0.91797 0.61719-1.375 1.5273-1.375 2.7344 0 1.1055 0.36719 1.9688 1.1094 2.5938 0.73828 0.625 1.7656 0.9375 3.0781 0.9375 1.6445 0 3.0312-0.58594 4.1562-1.7656 1.125-1.1758 1.6875-2.6484 1.6875-4.4219v-1.0156zm13.359-3.2812v15.594h-8.8125v-4.0469c-1.1797 1.6562-2.5 2.8672-3.9688 3.625-1.4609 0.75-3.2422 1.125-5.3438 1.125-2.8242 0-5.1211-0.82031-6.8906-2.4688-1.7617-1.6562-2.6406-3.8008-2.6406-6.4375 0-3.207 1.0977-5.5547 3.2969-7.0469 2.207-1.5 5.6719-2.25 10.391-2.25h5.1562v-0.6875c0-1.3828-0.54688-2.3945-1.6406-3.0312-1.0938-0.64453-2.793-0.96875-5.0938-0.96875-1.875 0-3.6211 0.1875-5.2344 0.5625-1.6172 0.375-3.1094 0.93359-4.4844 1.6719v-6.6562c1.8633-0.45703 3.7383-0.80078 5.625-1.0312 1.8945-0.23828 3.7852-0.35938 5.6719-0.35938 4.9375 0 8.5 0.97656 10.688 2.9219 2.1875 1.9375 3.2812 5.1016 3.2812 9.4844z"/>
  </symbol>
  <symbol id="h" overflow="visible">
   <path d="m13.75-35.109v7.7656h9v6.25h-9v11.594c0 1.2734 0.25 2.1328 0.75 2.5781 0.50781 0.44922 1.5078 0.67188 3 0.67188h4.5v6.25h-7.5c-3.4492 0-5.8984-0.71875-7.3438-2.1562-1.4375-1.4453-2.1562-3.8945-2.1562-7.3438v-11.594h-4.3438v-6.25h4.3438v-7.7656z"/>
  </symbol>
  <symbol id="g" overflow="visible">
   <path d="m22.797-23.344v-14.641h8.7969v37.984h-8.7969v-3.9531c-1.1992 1.6172-2.5234 2.7969-3.9688 3.5469-1.4492 0.73828-3.125 1.1094-5.0312 1.1094-3.375 0-6.1484-1.3359-8.3125-4.0156-2.1562-2.6758-3.2344-6.1172-3.2344-10.328 0-4.2188 1.0781-7.6641 3.2344-10.344 2.1641-2.6758 4.9375-4.0156 8.3125-4.0156 1.8828 0 3.5547 0.38281 5.0156 1.1406 1.457 0.75 2.7852 1.9219 3.9844 3.5156zm-5.75 17.703c1.8633 0 3.2852-0.67969 4.2656-2.0469 0.98828-1.3633 1.4844-3.3477 1.4844-5.9531 0-2.6016-0.49609-4.5859-1.4844-5.9531-0.98047-1.375-2.4023-2.0625-4.2656-2.0625-1.8555 0-3.2773 0.6875-4.2656 2.0625-0.99219 1.3672-1.4844 3.3516-1.4844 5.9531 0 2.6055 0.49219 4.5898 1.4844 5.9531 0.98828 1.3672 2.4102 2.0469 4.2656 2.0469z"/>
  </symbol>
  <symbol id="f" overflow="visible">
   <path d="m18.75-5.6406c1.875 0 3.3008-0.67969 4.2812-2.0469 0.98828-1.3633 1.4844-3.3477 1.4844-5.9531 0-2.6016-0.49609-4.5859-1.4844-5.9531-0.98047-1.375-2.4062-2.0625-4.2812-2.0625s-3.3125 0.6875-4.3125 2.0625-1.5 3.3594-1.5 5.9531c0 2.5859 0.5 4.5625 1.5 5.9375s2.4375 2.0625 4.3125 2.0625zm-5.8125-17.703c1.207-1.5938 2.5391-2.7656 4-3.5156 1.4688-0.75781 3.1562-1.1406 5.0625-1.1406 3.3633 0 6.1289 1.3398 8.2969 4.0156 2.1641 2.6797 3.25 6.125 3.25 10.344 0 4.2109-1.0859 7.6523-3.25 10.328-2.168 2.6797-4.9336 4.0156-8.2969 4.0156-1.9062 0-3.5938-0.375-5.0625-1.125-1.4609-0.75781-2.793-1.9375-4-3.5312v3.9531h-8.7344v-37.984h8.7344z"/>
  </symbol>
  <symbol id="e" overflow="visible">
   <path d="m0.60938-27.344h8.7344l7.3594 18.547 6.25-18.547h8.7344l-11.5 29.938c-1.1562 3.0391-2.5078 5.1641-4.0469 6.375-1.5312 1.2188-3.5586 1.8281-6.0781 1.8281h-5.0625v-5.75h2.7344c1.4883 0 2.5664-0.23438 3.2344-0.70312 0.67578-0.46875 1.2031-1.3125 1.5781-2.5312l0.25-0.76562z"/>
  </symbol>
  <symbol id="d" overflow="visible">
   <path d="m29.953-35.297v7.7031c-2-0.89453-3.9531-1.5664-5.8594-2.0156-1.9062-0.45703-3.7031-0.6875-5.3906-0.6875-2.25 0-3.9141 0.3125-4.9844 0.9375-1.0742 0.61719-1.6094 1.5742-1.6094 2.875 0 0.96875 0.35938 1.7305 1.0781 2.2812 0.72656 0.54297 2.0469 1.0117 3.9531 1.4062l4 0.79688c4.0508 0.8125 6.9297 2.0547 8.6406 3.7188 1.707 1.6562 2.5625 4.0156 2.5625 7.0781 0 4.0234-1.1953 7.0117-3.5781 8.9688-2.375 1.9609-6.0156 2.9375-10.922 2.9375-2.3125 0-4.6367-0.21875-6.9688-0.65625-2.3242-0.4375-4.6484-1.0859-6.9688-1.9531v-7.9375c2.3203 1.2422 4.5703 2.1719 6.75 2.7969 2.1758 0.625 4.2695 0.9375 6.2812 0.9375 2.0508 0 3.625-0.33594 4.7188-1.0156 1.0938-0.6875 1.6406-1.6641 1.6406-2.9375 0-1.1328-0.375-2.0078-1.125-2.625-0.74219-0.625-2.2148-1.1797-4.4219-1.6719l-3.6406-0.79688c-3.6484-0.78125-6.3125-2.0234-8-3.7344-1.6797-1.707-2.5156-4.0156-2.5156-6.9219 0-3.625 1.1719-6.4102 3.5156-8.3594 2.3438-1.957 5.7109-2.9375 10.109-2.9375 2 0 4.0547 0.15234 6.1719 0.45312 2.1133 0.30469 4.3008 0.75781 6.5625 1.3594z"/>
  </symbol>
  <symbol id="o" overflow="visible">
   <path d="m29.547-22.797c1.1016-1.6953 2.4141-2.9883 3.9375-3.875 1.5195-0.88281 3.1914-1.3281 5.0156-1.3281 3.1445 0 5.5352 0.96875 7.1719 2.9062 1.6445 1.9375 2.4688 4.75 2.4688 8.4375v16.656h-8.7812v-14.266c0.007813-0.20703 0.019531-0.42578 0.03125-0.65625 0.007813-0.22656 0.015625-0.55078 0.015625-0.96875 0-1.9375-0.28906-3.3359-0.85938-4.2031-0.5625-0.875-1.4805-1.3125-2.75-1.3125-1.668 0-2.9531 0.68359-3.8594 2.0469-0.89844 1.3672-1.3594 3.3438-1.3906 5.9375v13.422h-8.7969v-14.266c0-3.0195-0.26172-4.9609-0.78125-5.8281-0.52344-0.875-1.4492-1.3125-2.7812-1.3125-1.6797 0-2.9766 0.6875-3.8906 2.0625-0.90625 1.375-1.3594 3.3398-1.3594 5.8906v13.453h-8.7812v-27.344h8.7812v4c1.0703-1.5391 2.3008-2.7031 3.6875-3.4844 1.3945-0.78125 2.9297-1.1719 4.6094-1.1719 1.8945 0 3.5664 0.46094 5.0156 1.375 1.4453 0.90625 2.5469 2.1836 3.2969 3.8281z"/>
  </symbol>
  <symbol id="c" overflow="visible">
   <path d="m25.562-26.484v6.6406c-1.875-0.78125-3.6836-1.3633-5.4219-1.75-1.7422-0.39453-3.3867-0.59375-4.9375-0.59375-1.6562 0-2.8906 0.21094-3.7031 0.625-0.80469 0.40625-1.2031 1.043-1.2031 1.9062 0 0.69922 0.30469 1.2344 0.92188 1.6094 0.61328 0.375 1.707 0.65234 3.2812 0.82812l1.5469 0.21875c4.4688 0.57422 7.4727 1.5117 9.0156 2.8125 1.5508 1.3047 2.3281 3.3438 2.3281 6.125 0 2.918-1.0742 5.1094-3.2188 6.5781-2.1484 1.4609-5.3555 2.1875-9.625 2.1875-1.8047 0-3.668-0.14062-5.5938-0.42188-1.9297-0.28125-3.9141-0.70703-5.9531-1.2812v-6.6406c1.7383 0.84375 3.5234 1.4805 5.3594 1.9062 1.832 0.41797 3.6914 0.625 5.5781 0.625 1.707 0 2.9922-0.23438 3.8594-0.70312 0.86328-0.46875 1.2969-1.1641 1.2969-2.0938 0-0.78125-0.29688-1.3633-0.89062-1.75-0.59375-0.38281-1.7773-0.67969-3.5469-0.89062l-1.5469-0.20312c-3.8867-0.47656-6.6094-1.3789-8.1719-2.7031-1.5625-1.3203-2.3438-3.3203-2.3438-6 0-2.8945 0.98828-5.0391 2.9688-6.4375 1.9883-1.4062 5.0352-2.1094 9.1406-2.1094 1.6016 0 3.2891 0.125 5.0625 0.375 1.7812 0.24219 3.7109 0.62109 5.7969 1.1406z"/>
  </symbol>
  <symbol id="n" overflow="visible">
   <path d="m31.688-16.656v16.656h-8.7812v-12.703c0-2.3828-0.058594-4.0234-0.17188-4.9219-0.10547-0.89453-0.28906-1.5547-0.54688-1.9844-0.33594-0.5625-0.79688-1-1.3906-1.3125-0.58594-0.32031-1.25-0.48438-2-0.48438-1.8242 0-3.2578 0.70312-4.2969 2.1094-1.043 1.4062-1.5625 3.3555-1.5625 5.8438v13.453h-8.7344v-37.984h8.7344v14.641c1.3203-1.5938 2.7227-2.7656 4.2031-3.5156 1.4766-0.75781 3.1133-1.1406 4.9062-1.1406 3.1562 0 5.5508 0.96875 7.1875 2.9062 1.6328 1.9375 2.4531 4.75 2.4531 8.4375z"/>
  </symbol>
  <symbol id="m" overflow="visible">
   <path d="m4.2031-27.344h8.7344v27.344h-8.7344zm0-10.641h8.7344v7.125h-8.7344z"/>
  </symbol>
  <symbol id="l" overflow="visible">
   <path d="m26.297-26.484v7.125c-1.1875-0.8125-2.3828-1.4102-3.5781-1.7969-1.1992-0.39453-2.4375-0.59375-3.7188-0.59375-2.4492 0-4.3555 0.71484-5.7188 2.1406-1.3555 1.418-2.0312 3.4062-2.0312 5.9688 0 2.5547 0.67578 4.543 2.0312 5.9688 1.3633 1.418 3.2695 2.125 5.7188 2.125 1.3633 0 2.6602-0.20312 3.8906-0.60938 1.2266-0.40625 2.3633-1.0039 3.4062-1.7969v7.1406c-1.3672 0.51172-2.7578 0.89062-4.1719 1.1406-1.4062 0.25-2.8203 0.375-4.2344 0.375-4.9297 0-8.7812-1.2656-11.562-3.7969s-4.1719-6.0469-4.1719-10.547c0-4.5078 1.3906-8.0312 4.1719-10.562s6.6328-3.7969 11.562-3.7969c1.4375 0 2.8477 0.125 4.2344 0.375 1.3945 0.25 2.7852 0.63281 4.1719 1.1406z"/>
  </symbol>
  <symbol id="k" overflow="visible">
   <path d="m17.219-21.75c-1.9375 0-3.418 0.69922-4.4375 2.0938-1.0234 1.3867-1.5312 3.3906-1.5312 6.0156 0 2.6172 0.50781 4.6211 1.5312 6.0156 1.0195 1.3867 2.5 2.0781 4.4375 2.0781 1.8945 0 3.3477-0.69141 4.3594-2.0781 1.0078-1.3945 1.5156-3.3984 1.5156-6.0156 0-2.625-0.50781-4.6289-1.5156-6.0156-1.0117-1.3945-2.4648-2.0938-4.3594-2.0938zm0-6.25c4.6953 0 8.3672 1.2734 11.016 3.8125 2.6445 2.5312 3.9688 6.0469 3.9688 10.547 0 4.4922-1.3242 8.0078-3.9688 10.547-2.6484 2.5312-6.3203 3.7969-11.016 3.7969-4.7305 0-8.4219-1.2656-11.078-3.7969-2.6562-2.5391-3.9844-6.0547-3.9844-10.547 0-4.5 1.3281-8.0156 3.9844-10.547 2.6562-2.5391 6.3477-3.8125 11.078-3.8125z"/>
  </symbol>
  <symbol id="j" overflow="visible">
   <path d="m31.688-16.656v16.656h-8.7812v-12.75c0-2.3516-0.058594-3.9766-0.17188-4.875-0.10547-0.89453-0.28906-1.5547-0.54688-1.9844-0.33594-0.5625-0.79688-1-1.3906-1.3125-0.58594-0.32031-1.25-0.48438-2-0.48438-1.8242 0-3.2578 0.70312-4.2969 2.1094-1.043 1.4062-1.5625 3.3555-1.5625 5.8438v13.453h-8.7344v-27.344h8.7344v4c1.3203-1.5938 2.7227-2.7656 4.2031-3.5156 1.4766-0.75781 3.1133-1.1406 4.9062-1.1406 3.1562 0 5.5508 0.96875 7.1875 2.9062 1.6328 1.9375 2.4531 4.75 2.4531 8.4375z"/>
  </symbol>
 </defs>
 <g>
  <path d="m90 190h100v20h-40c-5.5195 0-10 4.4805-10 10v60c0 5.5195 4.4805 10 10 10h40v80h-100zm30-80h40v-20h-40zm150 200h20v20c0 5.5195 4.4805 10 10 10s10-4.4805 10-10v-20h20v20c0 5.5195 4.4805 10 10 10s10-4.4805 10-10v-20h20v60h-100zm90-80h20v20c0 5.5195 4.4805 10 10 10s10-4.4805 10-10v-20h20v20c0 5.5195 4.4805 10 10 10s10-4.4805 10-10v-20h20v60h-100zm220 60h-100v-60h20v20c0 5.5195 4.4805 10 10 10s10-4.4805 10-10v-20h20v20c0 5.5195 4.4805 10 10 10s10-4.4805 10-10v-20h20zm-170 20v20c0 5.5195 4.4805 10 10 10s10-4.4805 10-10v-20h20v20c0 5.5195 4.4805 10 10 10s10-4.4805 10-10v-20h20v60h-100v-60zm200 60h-100v-60h20v20c0 5.5195 4.4805 10 10 10s10-4.4805 10-10v-20h20v20c0 5.5195 4.4805 10 10 10s10-4.4805 10-10v-20h20zm30 0h-10v-70c0-5.5195-4.4805-10-10-10h-20v-70c0-5.5195-4.4805-10-10-10h-40v-70c0-5.5195-4.4805-10-10-10h-30v40c0 5.5195-4.4805 10-10 10s-10-4.4805-10-10v-40h-20v40c0 5.5195-4.4805 10-10 10s-10-4.4805-10-10v-40h-30c-5.5195 0-10 4.4805-10 10v70h-60c-5.5195 0-10 4.4805-10 10v70h-80c-5.5195 0-10 4.4805-10 10v70h-40v-80c5.5195 0 10-4.4805 10-10v-60c0-5.5195-4.4805-10-10-10v-30c0-5.5195-4.4805-10-10-10h-10v-50c0-5.5195-4.4805-10-10-10v-30c0-5.5195-4.4805-10-10-10h-20v-60c0-5.5195-4.4805-10-10-10s-10 4.4805-10 10v60h-20c-5.5195 0-10 4.4805-10 10v30c-5.5195 0-10 4.4805-10 10v50h-10c-5.5195 0-10 4.4805-10 10v190h-10c-5.5195 0-10 4.4805-10 10v80h578.75c13.34-11.141 21.25-27.68 21.25-45.199v-34.801c0-5.5195-4.4805-10-10-10z" fill-rule="evenodd"/>
  <path d="m50 519.95c0 22.082 17.969 40.051 40.051 40.051h469.95c4.8789 0 9.0508-3.5312 9.8594-8.3516 1.8398-11.047 5.1211-21.609 9.4219-31.648h-69.281c-5.5195 0-10-4.4688-10-10 0-5.5195 4.4805-10 10-10h79.84c4.582-7.1094 9.8008-13.82 15.68-20h-555.52z" fill-rule="evenodd"/>
 </g>
</svg>
